<svg width="1448" height="1032" viewBox="0 0 1448 1032" fill="none" xmlns="http://www.w3.org/2000/svg">
<g clip-path="url(#clip0_3_2)" filter="url(#filter0_d_3_2)">
<rect width="1440" height="1024" transform="translate(4)" fill="white"/>
<path fill-rule="evenodd" clip-rule="evenodd" d="M1406.67 924.4C1433.05 866.251 1402.37 800.255 1338.14 776.994C1273.91 753.732 1200.45 782.015 1174.07 840.164C1172.5 843.617 1171.14 847.099 1169.97 850.597C1199.86 799.31 1268.44 775.587 1328.85 797.467C1389.27 819.346 1420 879.035 1401.48 934.44C1403.37 931.202 1405.1 927.854 1406.67 924.4Z" fill="#D5429B"/>
<path fill-rule="evenodd" clip-rule="evenodd" d="M1433.78 554.669C1367.67 569.011 1322.93 635.962 1332.2 710.444C1341.47 784.926 1401.46 840.41 1469.31 840.085C1465.14 840.99 1460.88 841.686 1456.54 842.161C1383.53 850.155 1316.35 792.444 1306.5 713.259C1296.64 634.074 1347.83 563.401 1420.84 555.407C1425.18 554.932 1429.5 554.689 1433.78 554.669Z" fill="#D5429B"/>
<path fill-rule="evenodd" clip-rule="evenodd" d="M1414.04 918.065C1427.57 869.259 1379.3 809.79 1300.67 781.311C1222.03 752.832 1141.04 765.487 1112.71 808.934C1113.56 805.852 1114.66 802.813 1116.02 799.827C1138.83 749.547 1225.1 733.332 1308.7 763.609C1392.3 793.886 1441.58 859.19 1418.76 909.47C1417.41 912.456 1415.83 915.322 1414.04 918.065Z" fill="#D5429B"/>
<path fill-rule="evenodd" clip-rule="evenodd" d="M1433.82 611.011C1364.82 618.566 1315.15 675.092 1322.89 737.263C1330.63 799.435 1392.85 843.71 1461.85 836.154C1465.95 835.706 1469.98 835.084 1473.93 834.299C1409.94 835.728 1354.47 793.082 1347.19 734.603C1339.91 676.124 1383.42 622.64 1446.04 610.206C1442 610.296 1437.92 610.562 1433.82 611.011Z" fill="#D5429B"/>
<path fill-rule="evenodd" clip-rule="evenodd" d="M-7.74685 236.455C-26.7156 287.964 6.89766 343.479 67.3304 360.452C127.763 377.424 192.131 349.427 211.099 297.918C212.226 294.858 213.167 291.784 213.928 288.706C191.178 334.458 130.853 358.281 74.0084 342.317C17.1653 326.353 -15.9497 276.288 -3.89778 227.533C-5.334 230.421 -6.62046 233.397 -7.74685 236.455Z" fill="#D5429B"/>
<path fill-rule="evenodd" clip-rule="evenodd" d="M11.2732 555.868C76.9894 545.417 117.442 481.885 101.627 413.967C85.8115 346.048 19.717 299.462 -45.9992 309.914C-49.9021 310.535 -53.7159 311.343 -57.434 312.328C4.25359 308.751 63.614 353.762 78.4901 417.647C93.3662 481.531 58.4592 541.535 -0.428709 557.134C3.46618 556.909 7.37034 556.489 11.2732 555.868Z" fill="#D5429B"/>
<path fill-rule="evenodd" clip-rule="evenodd" d="M-17.4589 249.94C-33.8606 294.478 16.6092 348.492 95.2686 370.583C173.928 392.674 250.99 374.478 267.392 329.939C268.366 327.294 269.104 324.615 269.615 321.912C247.606 360.816 175.031 375.682 101.043 354.903C27.0555 334.123 -21.9916 285.101 -13.9074 242.287C-15.2969 244.743 -16.4849 247.295 -17.4589 249.94Z" fill="#D5429B"/>
<path fill-rule="evenodd" clip-rule="evenodd" d="M-16.3802 509.759C39.5008 495.977 74.4486 447.666 62.7687 397.507C51.0889 347.348 -3.05846 313.207 -61.1375 317.55C-57.6092 316.679 -53.9975 315.947 -50.3087 315.36C11.8019 305.482 72.2188 340.703 84.6361 394.029C97.0535 447.355 56.7691 498.592 -5.34156 508.47C-9.0303 509.057 -12.7131 509.485 -16.3802 509.759Z" fill="#D5429B"/>
</g>
<defs>
<filter id="filter0_d_3_2" x="0" y="0" width="1448" height="1032" filterUnits="userSpaceOnUse" color-interpolation-filters="sRGB">
<feFlood flood-opacity="0" result="BackgroundImageFix"/>
<feColorMatrix in="SourceAlpha" type="matrix" values="0 0 0 0 0 0 0 0 0 0 0 0 0 0 0 0 0 0 127 0" result="hardAlpha"/>
<feOffset dy="4"/>
<feGaussianBlur stdDeviation="2"/>
<feComposite in2="hardAlpha" operator="out"/>
<feColorMatrix type="matrix" values="0 0 0 0 0 0 0 0 0 0 0 0 0 0 0 0 0 0 0.25 0"/>
<feBlend mode="normal" in2="BackgroundImageFix" result="effect1_dropShadow_3_2"/>
<feBlend mode="normal" in="SourceGraphic" in2="effect1_dropShadow_3_2" result="shape"/>
</filter>
<clipPath id="clip0_3_2">
<rect width="1440" height="1024" fill="white" transform="translate(4)"/>
</clipPath>
</defs>
</svg>
